<?xml version="1.0" encoding="UTF-8" standalone="no"?>
<svg
   role="img"
   viewBox="0 0 80.861435 80.861435"
   version="1.1"
   id="svg1"
   width="80.861435"
   height="80.861435"
   xmlns="http://www.w3.org/2000/svg"
   xmlns:svg="http://www.w3.org/2000/svg"
   xmlns:rdf="http://www.w3.org/1999/02/22-rdf-syntax-ns#"
   xmlns:cc="http://creativecommons.org/ns#"
   xmlns:dc="http://purl.org/dc/elements/1.1/">
  <defs
     id="defs1" />
  <title
     id="title1">Reddit</title>
  <path
     d="m 40.430718,0.50000043 c -22.051739,0 -39.93071757,17.87897857 -39.93071757,39.93071757 0,11.027533 4.46891297,21.010213 11.69637257,28.234345 l -7.6068016,7.606802 c -1.510712,1.510712 -0.439238,4.089571 1.693728,4.089571 H 40.430718 c 22.051739,0 39.930718,-17.878979 39.930718,-39.930718 0,-22.051739 -17.878979,-39.93071757 -39.930718,-39.93071757 z M 55.032051,11.144864 c 3.673626,0 6.651792,2.978166 6.651792,6.651792 0,3.676954 -2.978166,6.65512 -6.651792,6.65512 -3.147872,0 -5.786627,-2.186207 -6.478759,-5.121115 v 0.0067 c -3.816712,0.539065 -6.761602,3.826694 -6.761602,7.789818 v 0.02329 c 5.909746,0.222946 11.313703,1.886726 15.592945,4.535464 1.573936,-1.207904 3.540524,-1.929985 5.680145,-1.929985 5.147735,0 9.323823,4.17276 9.323823,9.323823 0,3.716884 -2.179552,6.924652 -5.327424,8.422054 -0.292825,10.834534 -12.102335,19.552741 -26.610496,19.552741 -14.511488,0 -26.30436,-8.708224 -26.613823,-19.532776 -3.174492,-1.487419 -5.3706816,-4.708497 -5.3706816,-8.445347 0,-5.151062 4.1760876,-9.323822 9.3271506,-9.323822 2.146276,0 4.122846,0.725408 5.696782,1.946622 4.242639,-2.628772 9.5867,-4.29588 15.439878,-4.542119 v -0.03328 c 0,-5.533732 4.202708,-10.095816 9.583372,-10.671484 0.625581,-3.031407 3.304267,-5.307458 6.51869,-5.307458 z M 28.128729,39.016505 c -2.608807,0 -4.854909,2.595497 -5.011305,5.979625 -0.156395,3.380801 2.129639,4.755083 4.745101,4.755083 2.615462,0 4.562084,-1.22787 4.718479,-4.60867 0.156396,-3.384129 -1.84014,-6.126038 -4.452275,-6.126038 z m 24.643908,0 c -2.615462,0 -4.60867,2.741909 -4.452275,6.126038 0.156396,3.384128 2.109673,4.60867 4.71848,4.60867 2.612135,0 4.901496,-1.374282 4.7451,-4.755083 -0.153067,-3.384128 -2.39917,-5.979625 -5.011305,-5.979625 z M 40.450683,52.370003 c -3.241043,0 -6.345656,0.159723 -9.21734,0.44922 -0.489152,0.04991 -0.801942,0.55903 -0.608944,1.014906 1.607212,3.840004 5.397302,6.535327 9.826284,6.535327 4.425655,0 8.219073,-2.695323 9.826285,-6.535327 0.18967,-0.455876 -0.12312,-0.964992 -0.612271,-1.014906 -2.871685,-0.289497 -5.97297,-0.44922 -9.214014,-0.44922 z"
     id="path1"
     style="fill:#ffffff;fill-opacity:1;stroke:#ffffff;stroke-width:1;stroke-linecap:round;stroke-linejoin:round;stroke-dasharray:none;stroke-opacity:1" />
  <metadata
     id="metadata1">
    <rdf:RDF>
      <cc:Work
         rdf:about="">
        <dc:title>Reddit</dc:title>
      </cc:Work>
    </rdf:RDF>
  </metadata>
</svg>
